<svg width="726.7624999999999px" height="121.60000610351562px" xmlns="http://www.w3.org/2000/svg" viewBox="-113.38124999999997 14.199996948242188 726.7624999999999 121.60000610351562" style="background: rgba(0, 0, 0, 0);" preserveAspectRatio="xMidYMid"><defs><filter id="editing-vr"><feFlood flood-color="#f00" flood-opacity="0.7" result="c1"></feFlood><feFlood flood-color="#00f" flood-opacity="0.7" result="c3"></feFlood><feComposite operator="in" in="c1" in2="SourceAlpha" result="text-c1"></feComposite><feComposite operator="in" in="c3" in2="SourceAlpha" result="text-c3"></feComposite><feOffset in="text-c1" dx="2" dy="2" result="text1"></feOffset><feOffset in="text-c3" dx="-2" dy="-2" result="text3"></feOffset><feBlend in="SourceGraphic" in2="text1" mode="multiply" result="text4"></feBlend><feBlend in="text4" in2="text3" mode="multiply"></feBlend></filter></defs><g filter="url(#editing-vr)"><g transform="translate(-6.475607395172119, 104.7599983215332)"><path d="M30.91-4.38L30.91-4.38L30.91-4.38Q28.22-1.66 24.54-0.19L24.54-0.19L24.54-0.19Q20.86 1.28 17.22 1.28L17.22 1.28L17.22 1.28Q13.57 1.28 12.29 0.64L12.29 0.64L10.30 11.52L-2.69 12.80L6.14-32.64L16.58-33.73L15.74-29.31L15.74-29.31Q18.43-33.86 24-33.86L24-33.86L24-33.86Q30.27-33.86 33.60-29.82L33.60-29.82L33.60-29.82Q36.54-26.18 36.54-20.61L36.54-20.61L36.54-20.61Q36.54-15.04 35.07-11.07L35.07-11.07L35.07-11.07Q33.60-7.10 30.91-4.38ZM16.45-22.34L13.06-3.58L13.06-3.58Q14.40-2.43 16.06-2.43L16.06-2.43L16.06-2.43Q17.73-2.43 18.69-3.07L18.69-3.07L18.69-3.07Q19.65-3.71 20.35-4.99L20.35-4.99L20.35-4.99Q22.27-8.45 23.81-18.94L23.81-18.94L23.81-18.94Q24.26-22.02 24.26-25.02L24.26-25.02L24.26-25.02Q24.26-28.03 23.58-28.99L23.58-28.99L23.58-28.99Q22.91-29.95 21.63-29.95L21.63-29.95L21.63-29.95Q17.73-29.95 16.45-22.34L16.45-22.34ZM55.74-3.52L55.74-3.52L55.74-3.52Q53.76 1.28 47.42 1.28L47.42 1.28L47.42 1.28Q44.16 1.28 42.11-0.96L42.11-0.96L42.11-0.96Q40.38-2.94 40.38-4.93L40.38-4.93L40.38-4.93Q40.38-10.11 42.75-20.22L42.75-20.22L45.12-32.64L58.11-33.92L54.21-13.70L54.21-13.70Q53.12-8.96 53.12-7.30L53.12-7.30L53.12-7.30Q53.12-3.65 55.74-3.52ZM46.27-41.54L46.27-41.54L46.27-41.54Q46.27-44.03 48.35-45.38L48.35-45.38L48.35-45.38Q50.43-46.72 53.44-46.72L53.44-46.72L53.44-46.72Q56.45-46.72 58.27-45.38L58.27-45.38L58.27-45.38Q60.10-44.03 60.10-41.54L60.10-41.54L60.10-41.54Q60.10-39.04 58.08-37.76L58.08-37.76L58.08-37.76Q56.06-36.48 53.06-36.48L53.06-36.48L53.06-36.48Q50.05-36.48 48.16-37.76L48.16-37.76L48.16-37.76Q46.27-39.04 46.27-41.54ZM80.32-22.46L80.32-22.46L80.32-22.46Q81.22-24.83 81.22-26.88L81.22-26.88L81.22-26.88Q81.22-30.66 78.14-30.66L78.14-30.66L78.14-30.66Q76.54-30.66 75.23-29.22L75.23-29.22L75.23-29.22Q73.92-27.78 73.92-25.98L73.92-25.98L73.92-25.98Q73.92-24.70 74.94-23.68L74.94-23.68L74.94-23.68Q76.42-22.27 80.19-19.97L80.19-19.97L80.19-19.97Q83.97-17.66 85.41-15.78L85.41-15.78L85.41-15.78Q86.85-13.89 86.85-11.30L86.85-11.30L86.85-11.30Q86.85-8.70 85.60-6.34L85.60-6.34L85.60-6.34Q84.35-3.97 82.11-2.30L82.11-2.30L82.11-2.30Q77.31 1.28 69.63 1.28L69.63 1.28L69.63 1.28Q65.47 1.28 62.27-0.90L62.27-0.90L62.27-0.90Q59.07-3.01 59.07-5.50L59.07-5.50L59.07-5.50Q59.07-8 60.90-9.47L60.90-9.47L60.90-9.47Q62.72-10.94 65.41-10.94L65.41-10.94L65.41-10.94Q68.10-10.94 69.76-9.92L69.76-9.92L69.76-9.92Q68.93-7.81 68.93-6.40L68.93-6.40L68.93-6.40Q68.93-2.18 72.51-2.18L72.51-2.18L72.51-2.18Q74.05-2.18 75.07-3.14L75.07-3.14L75.07-3.14Q76.10-4.10 76.10-5.76L76.10-5.76L76.10-5.76Q76.10-9.02 70.59-12.48L70.59-12.48L70.59-12.48Q66.11-15.42 65.09-16.58L65.09-16.58L65.09-16.58Q63.36-18.62 63.36-21.18L63.36-21.18L63.36-21.18Q63.36-23.74 64.58-26.18L64.58-26.18L64.58-26.18Q65.79-28.61 68.03-30.34L68.03-30.34L68.03-30.34Q72.70-33.92 80.83-33.92L80.83-33.92L80.83-33.92Q84.99-33.92 87.46-32.26L87.46-32.26L87.46-32.26Q89.92-30.59 89.92-27.78L89.92-27.78L89.92-27.78Q89.92-24.96 88.22-23.36L88.22-23.36L88.22-23.36Q86.53-21.76 83.46-21.76L83.46-21.76L83.46-21.76Q81.34-21.76 80.32-22.46ZM95.07-1.92L95.07-1.92L95.07-1.92Q93.57-3.58 92.90-6.21L92.90-6.21L92.90-6.21Q92.22-8.83 92.22-13.12L92.22-13.12L92.22-13.12Q92.22-17.41 93.70-21.31L93.70-21.31L93.70-21.31Q95.17-25.22 97.86-28.03L97.86-28.03L97.86-28.03Q103.36-33.92 112.45-33.92L112.45-33.92L112.45-33.92Q115.71-33.92 118.08-32.83L118.08-32.83L129.02-33.92L124.29-8.96L124.29-8.96Q124.10-8.19 124.10-6.78L124.10-6.78L124.10-6.78Q124.10-5.38 124.96-4.48L124.96-4.48L124.96-4.48Q125.82-3.58 127.10-3.46L127.10-3.46L127.10-3.46Q126.46-1.28 124.13 0L124.13 0L124.13 0Q121.79 1.28 119.17 1.28L119.17 1.28L119.17 1.28Q116.54 1.28 114.78 0.29L114.78 0.29L114.78 0.29Q113.02-0.70 112.51-2.37L112.51-2.37L112.51-2.37Q111.49-0.77 109.31 0.26L109.31 0.26L109.31 0.26Q107.14 1.28 104.22 1.28L104.22 1.28L104.22 1.28Q101.31 1.28 98.94 0.51L98.94 0.51L98.94 0.51Q96.58-0.26 95.07-1.92ZM108.58-27.90L108.58-27.90L108.58-27.90Q107.84-26.75 107.20-24.80L107.20-24.80L107.20-24.80Q106.56-22.85 105.50-17.63L105.50-17.63L105.50-17.63Q104.45-12.42 104.45-8.70L104.45-8.70L104.45-8.70Q104.45-4.99 105.02-3.90L105.02-3.90L105.02-3.90Q105.60-2.82 106.62-2.82L106.62-2.82L106.62-2.82Q108.67-2.82 110.18-4.77L110.18-4.77L110.18-4.77Q111.68-6.72 112.26-10.18L112.26-10.18L115.65-28.93L115.65-28.93Q114.30-30.08 112.74-30.08L112.74-30.08L112.74-30.08Q111.17-30.08 110.24-29.57L110.24-29.57L110.24-29.57Q109.31-29.06 108.58-27.90ZM175.49-4.38L175.49-4.38L175.49-4.38Q172.80-1.66 169.12-0.19L169.12-0.19L169.12-0.19Q165.44 1.28 161.79 1.28L161.79 1.28L161.79 1.28Q158.14 1.28 156.86 0.64L156.86 0.64L154.88 11.52L141.89 12.80L150.72-32.64L161.15-33.73L160.32-29.31L160.32-29.31Q163.01-33.86 168.58-33.86L168.58-33.86L168.58-33.86Q174.85-33.86 178.18-29.82L178.18-29.82L178.18-29.82Q181.12-26.18 181.12-20.61L181.12-20.61L181.12-20.61Q181.12-15.04 179.65-11.07L179.65-11.07L179.65-11.07Q178.18-7.10 175.49-4.38ZM161.02-22.34L157.63-3.58L157.63-3.58Q158.98-2.43 160.64-2.43L160.64-2.43L160.64-2.43Q162.30-2.43 163.26-3.07L163.26-3.07L163.26-3.07Q164.22-3.71 164.93-4.99L164.93-4.99L164.93-4.99Q166.85-8.45 168.38-18.94L168.38-18.94L168.38-18.94Q168.83-22.02 168.83-25.02L168.83-25.02L168.83-25.02Q168.83-28.03 168.16-28.99L168.16-28.99L168.16-28.99Q167.49-29.95 166.21-29.95L166.21-29.95L166.21-29.95Q162.30-29.95 161.02-22.34L161.02-22.34ZM198.91 1.28L198.91 1.28L198.91 1.28Q184.83 1.28 184.83-11.97L184.83-11.97L184.83-11.97Q184.83-21.38 190.02-27.46L190.02-27.46L190.02-27.46Q195.52-33.92 205.06-33.92L205.06-33.92L205.06-33.92Q211.97-33.92 215.49-30.72L215.49-30.72L215.49-30.72Q219.01-27.52 219.01-20.80L219.01-20.80L219.01-20.80Q219.01-10.56 213.50-4.61L213.50-4.61L213.50-4.61Q208.13 1.28 198.91 1.28ZM200.58-26.56L200.58-26.56L200.58-26.56Q199.81-24.83 199.20-22.24L199.20-22.24L199.20-22.24Q198.59-19.65 197.82-15.55L197.82-15.55L197.82-15.55Q197.06-11.46 197.06-6.40L197.06-6.40L197.06-6.40Q197.06-4.74 197.60-3.65L197.60-3.65L197.60-3.65Q198.14-2.56 199.62-2.56L199.62-2.56L199.62-2.56Q201.09-2.56 202.02-3.26L202.02-3.26L202.02-3.26Q202.94-3.97 203.65-5.63L203.65-5.63L203.65-5.63Q204.93-8.58 205.95-14.05L205.95-14.05L205.95-14.05Q206.98-19.52 207.07-21.89L207.07-21.89L207.07-21.89Q207.17-24.26 207.17-26.02L207.17-26.02L207.17-26.02Q207.17-27.78 206.66-28.93L206.66-28.93L206.66-28.93Q206.14-30.08 204.70-30.08L204.70-30.08L204.70-30.08Q203.26-30.08 202.30-29.18L202.30-29.18L202.30-29.18Q201.34-28.29 200.58-26.56ZM252.61-4.38L252.61-4.38L252.61-4.38Q249.92-1.66 246.24-0.19L246.24-0.19L246.24-0.19Q242.56 1.28 238.91 1.28L238.91 1.28L238.91 1.28Q235.26 1.28 233.98 0.64L233.98 0.64L232.00 11.52L219.01 12.80L227.84-32.64L238.27-33.73L237.44-29.31L237.44-29.31Q240.13-33.86 245.70-33.86L245.70-33.86L245.70-33.86Q251.97-33.86 255.30-29.82L255.30-29.82L255.30-29.82Q258.24-26.18 258.24-20.61L258.24-20.61L258.24-20.61Q258.24-15.04 256.77-11.07L256.77-11.07L256.77-11.07Q255.30-7.10 252.61-4.38ZM238.14-22.34L234.75-3.58L234.75-3.58Q236.10-2.43 237.76-2.43L237.76-2.43L237.76-2.43Q239.42-2.43 240.38-3.07L240.38-3.07L240.38-3.07Q241.34-3.71 242.05-4.99L242.05-4.99L242.05-4.99Q243.97-8.45 245.50-18.94L245.50-18.94L245.50-18.94Q245.95-22.02 245.95-25.02L245.95-25.02L245.95-25.02Q245.95-28.03 245.28-28.99L245.28-28.99L245.28-28.99Q244.61-29.95 243.33-29.95L243.33-29.95L243.33-29.95Q239.42-29.95 238.14-22.34L238.14-22.34ZM264.86-1.92L264.86-1.92L264.86-1.92Q263.36-3.58 262.69-6.21L262.69-6.21L262.69-6.21Q262.02-8.83 262.02-13.12L262.02-13.12L262.02-13.12Q262.02-17.41 263.49-21.31L263.49-21.31L263.49-21.31Q264.96-25.22 267.65-28.03L267.65-28.03L267.65-28.03Q273.15-33.92 282.24-33.92L282.24-33.92L282.24-33.92Q285.50-33.92 287.87-32.83L287.87-32.83L298.82-33.92L294.08-8.96L294.08-8.96Q293.89-8.19 293.89-6.78L293.89-6.78L293.89-6.78Q293.89-5.38 294.75-4.48L294.75-4.48L294.75-4.48Q295.62-3.58 296.90-3.46L296.90-3.46L296.90-3.46Q296.26-1.28 293.92 0L293.92 0L293.92 0Q291.58 1.28 288.96 1.28L288.96 1.28L288.96 1.28Q286.34 1.28 284.58 0.29L284.58 0.29L284.58 0.29Q282.82-0.70 282.30-2.37L282.30-2.37L282.30-2.37Q281.28-0.77 279.10 0.26L279.10 0.26L279.10 0.26Q276.93 1.28 274.02 1.28L274.02 1.28L274.02 1.28Q271.10 1.28 268.74 0.51L268.74 0.51L268.74 0.51Q266.37-0.26 264.86-1.92ZM278.37-27.90L278.37-27.90L278.37-27.90Q277.63-26.75 276.99-24.80L276.99-24.80L276.99-24.80Q276.35-22.85 275.30-17.63L275.30-17.63L275.30-17.63Q274.24-12.42 274.24-8.70L274.24-8.70L274.24-8.70Q274.24-4.99 274.82-3.90L274.82-3.90L274.82-3.90Q275.39-2.82 276.42-2.82L276.42-2.82L276.42-2.82Q278.46-2.82 279.97-4.77L279.97-4.77L279.97-4.77Q281.47-6.72 282.05-10.18L282.05-10.18L285.44-28.93L285.44-28.93Q284.10-30.08 282.53-30.08L282.53-30.08L282.53-30.08Q280.96-30.08 280.03-29.57L280.03-29.57L280.03-29.57Q279.10-29.06 278.37-27.90ZM346.88-26.62L346.88-26.62L346.88-26.62Q346.88-23.94 344.64-22.27L344.64-22.27L344.64-22.27Q342.40-20.61 338.75-20.61L338.75-20.61L338.75-20.61Q337.22-20.61 336.32-21.06L336.32-21.06L336.32-21.06Q337.02-22.72 337.25-24.80L337.25-24.80L337.25-24.80Q337.47-26.88 337.47-27.46L337.47-27.46L337.47-27.46Q337.47-30.14 335.62-30.14L335.62-30.14L335.62-30.14Q334.34-30.14 332.90-28.54L332.90-28.54L332.90-28.54Q331.46-26.94 330.24-24.45L330.24-24.45L330.24-24.45Q327.55-18.69 327.55-12.86L327.55-12.86L327.55-12.86Q327.55-9.66 328.77-8.22L328.77-8.22L328.77-8.22Q329.98-6.78 332.67-6.78L332.67-6.78L332.67-6.78Q336.38-6.78 339.33-9.86L339.33-9.86L339.33-9.86Q340.16-10.82 340.61-11.90L340.61-11.90L340.61-11.90Q343.04-10.62 343.04-7.10L343.04-7.10L343.04-7.10Q343.04-3.52 339.07-1.15L339.07-1.15L339.07-1.15Q334.98 1.28 328.45 1.28L328.45 1.28L328.45 1.28Q315.46 1.28 315.46-12.48L315.46-12.48L315.46-12.48Q315.46-22.53 321.15-28.29L321.15-28.29L321.15-28.29Q326.66-33.92 336.77-33.92L336.77-33.92L336.77-33.92Q346.88-33.92 346.88-26.62ZM380.80-7.10L380.80-7.10L380.80-7.10Q380.80-4.29 383.68-3.46L383.68-3.46L383.68-3.46Q382.98-1.09 380.22 0.19L380.22 0.19L380.22 0.19Q377.92 1.28 375.39 1.28L375.39 1.28L375.39 1.28Q372.86 1.28 371.55 0.61L371.55 0.61L371.55 0.61Q370.24-0.06 369.54-1.15L369.54-1.15L369.54-1.15Q368.38-2.82 368.38-5.95L368.38-5.95L368.38-5.95Q368.38-7.81 369.41-12.93L369.41-12.93L370.30-17.79L370.30-17.79Q371.39-23.36 371.39-25.41L371.39-25.41L371.39-25.41Q371.39-28.99 369.41-28.99L369.41-28.99L369.41-28.99Q366.91-28.99 365.31-25.34L365.31-25.34L365.31-25.34Q364.67-23.94 364.22-21.82L364.22-21.82L359.87 0L347.01 1.28L356.03-44.80L368.90-46.08L368.38-43.52L368.38-43.52Q366.59-33.66 365.06-30.34L365.06-30.34L365.06-30.34Q368.64-33.92 375.23-33.92L375.23-33.92L375.23-33.92Q382.21-33.92 383.49-29.31L383.49-29.31L383.49-29.31Q383.94-27.84 383.94-26.56L383.94-26.56L383.94-26.56Q383.94-25.28 383.84-24.29L383.84-24.29L383.84-24.29Q383.74-23.30 383.42-21.50L383.42-21.50L382.59-16.90L381.12-9.66L381.12-9.66Q380.80-8.19 380.80-7.10ZM404.16-3.52L404.16-3.52L404.16-3.52Q402.18 1.28 395.84 1.28L395.84 1.28L395.84 1.28Q392.64 1.28 390.59-0.96L390.59-0.96L390.59-0.96Q388.93-2.82 388.93-4.93L388.93-4.93L388.93-4.93Q388.93-9.73 391.17-20.22L391.17-20.22L395.84-44.80L408.83-46.08L402.62-13.70L402.62-13.70Q401.54-8.96 401.54-7.30L401.54-7.30L401.54-7.30Q401.54-3.65 404.16-3.52ZM435.52-10.82L435.52-10.82L435.52-10.82Q437.12-9.73 437.12-7.33L437.12-7.33L437.12-7.33Q437.12-4.93 435.90-3.39L435.90-3.39L435.90-3.39Q434.69-1.86 432.70-0.83L432.70-0.83L432.70-0.83Q428.61 1.28 424.19 1.28L424.19 1.28L424.19 1.28Q419.78 1.28 417.18 0.32L417.18 0.32L417.18 0.32Q414.59-0.64 412.86-2.43L412.86-2.43L412.86-2.43Q409.47-5.82 409.47-12.03L409.47-12.03L409.47-12.03Q409.47-21.70 414.72-27.58L414.72-27.58L414.72-27.58Q420.35-33.92 430.14-33.92L430.14-33.92L430.14-33.92Q436.22-33.92 439.23-31.36L439.23-31.36L439.23-31.36Q441.47-29.44 441.47-26.30L441.47-26.30L441.47-26.30Q441.47-15.04 422.02-15.04L422.02-15.04L422.02-15.04Q421.76-13.38 421.76-11.97L421.76-11.97L421.76-11.97Q421.76-9.02 423.07-7.90L423.07-7.90L423.07-7.90Q424.38-6.78 426.82-6.78L426.82-6.78L426.82-6.78Q429.25-6.78 431.84-7.90L431.84-7.90L431.84-7.90Q434.43-9.02 435.52-10.82ZM422.46-17.79L422.46-17.79L422.46-17.79Q427.01-17.79 429.63-20.61L429.63-20.61L429.63-20.61Q432.26-23.30 432.26-27.58L432.26-27.58L432.26-27.58Q432.26-29.06 431.71-29.86L431.71-29.86L431.71-29.86Q431.17-30.66 430.08-30.66L430.08-30.66L430.08-30.66Q428.99-30.66 428.06-30.24L428.06-30.24L428.06-30.24Q427.14-29.82 426.18-28.42L426.18-28.42L426.18-28.42Q423.81-25.22 422.46-17.79ZM469.57-10.82L469.57-10.82L469.57-10.82Q471.17-9.73 471.17-7.33L471.17-7.33L471.17-7.33Q471.17-4.93 469.95-3.39L469.95-3.39L469.95-3.39Q468.74-1.86 466.75-0.83L466.75-0.83L466.75-0.83Q462.66 1.28 458.24 1.28L458.24 1.28L458.24 1.28Q453.82 1.28 451.23 0.32L451.23 0.32L451.23 0.32Q448.64-0.64 446.91-2.43L446.91-2.43L446.91-2.43Q443.52-5.82 443.52-12.03L443.52-12.03L443.52-12.03Q443.52-21.70 448.77-27.58L448.77-27.58L448.77-27.58Q454.40-33.92 464.19-33.92L464.19-33.92L464.19-33.92Q470.27-33.92 473.28-31.36L473.28-31.36L473.28-31.36Q475.52-29.44 475.52-26.30L475.52-26.30L475.52-26.30Q475.52-15.04 456.06-15.04L456.06-15.04L456.06-15.04Q455.81-13.38 455.81-11.97L455.81-11.97L455.81-11.97Q455.81-9.02 457.12-7.90L457.12-7.90L457.12-7.90Q458.43-6.78 460.86-6.78L460.86-6.78L460.86-6.78Q463.30-6.78 465.89-7.90L465.89-7.90L465.89-7.90Q468.48-9.02 469.57-10.82ZM456.51-17.79L456.51-17.79L456.51-17.79Q461.06-17.79 463.68-20.61L463.68-20.61L463.68-20.61Q466.30-23.30 466.30-27.58L466.30-27.58L466.30-27.58Q466.30-29.06 465.76-29.86L465.76-29.86L465.76-29.86Q465.22-30.66 464.13-30.66L464.13-30.66L464.13-30.66Q463.04-30.66 462.11-30.24L462.11-30.24L462.11-30.24Q461.18-29.82 460.22-28.42L460.22-28.42L460.22-28.42Q457.86-25.22 456.51-17.79ZM504.77 1.28L504.77 1.28L504.77 1.28Q497.02 1.28 497.02-4.74L497.02-4.74L497.02-4.74Q497.09-6.40 497.60-9.22L497.60-9.22L498.75-15.10L498.75-15.10Q500.48-23.42 500.48-25.28L500.48-25.28L500.48-25.28Q500.48-28.99 498.30-28.99L498.30-28.99L498.30-28.99Q494.66-28.99 492.74-19.46L492.74-19.46L488.96 0L476.10 1.28L482.75-32.70L493.25-33.92L492.22-27.65L492.22-27.65Q495.23-33.92 504.45-33.92L504.45-33.92L504.45-33.92Q508.93-33.92 510.82-32.03L510.82-32.03L510.82-32.03Q512.70-30.14 512.70-25.92L512.70-25.92L512.70-25.92Q512.70-21.95 510.66-12.67L510.66-12.67L510.66-12.67Q509.70-8.51 509.70-6.94L509.70-6.94L509.70-6.94Q509.70-5.38 510.56-4.48L510.56-4.48L510.56-4.48Q511.42-3.58 512.70-3.46L512.70-3.46L512.70-3.46Q512.06-1.28 509.86 0L509.86 0L509.86 0Q507.65 1.28 504.77 1.28Z" fill="#444"></path></g></g><style>text {
  font-size: 64px;
  font-family: Arial Black;
  dominant-baseline: central;
  text-anchor: middle;
}</style></svg>